<svg width="591" height="660" viewBox="0 0 591 660" fill="none" xmlns="http://www.w3.org/2000/svg">
<g clip-path="url(#clip0_1801_124)">
<path d="M138.649 86.2019C136.536 80.1316 133.124 74.5953 128.651 69.979C124.179 65.3628 118.753 61.7776 112.753 59.4737C106.752 57.1698 100.321 56.2025 93.9087 56.6393C87.496 57.076 81.2558 58.9064 75.6231 62.0027C69.9905 65.0989 65.1011 69.3866 61.2958 74.5667C57.4905 79.7468 54.861 85.6946 53.5906 91.9953C52.3202 98.2961 52.4394 104.798 53.9401 111.048C55.4408 117.298 58.2866 123.145 62.2794 128.182C62.676 128.682 63.0885 129.182 63.5088 129.666C63.5406 129.697 63.5642 129.729 63.596 129.761C64.6302 130.952 65.7294 132.086 66.8884 133.156C67.1897 133.434 67.507 133.719 67.8242 133.989C68.4273 134.529 69.0459 135.044 69.6885 135.536C70.9431 136.525 72.2514 137.444 73.6072 138.289L73.6549 138.313C74.5353 138.86 75.4316 139.368 76.3442 139.852L76.7169 140.042C77.5737 140.486 78.4463 140.907 79.3427 141.295C79.5251 141.375 79.7234 141.454 79.9059 141.533C79.9217 141.541 79.9298 141.541 79.9457 141.549C81.7569 142.302 83.6175 142.93 85.5146 143.429C89.2332 144.42 93.0653 144.922 96.9138 144.921C98.3179 144.921 99.7061 144.857 101.078 144.722C104.214 144.433 107.31 143.808 110.312 142.858C110.321 142.858 110.328 142.85 110.336 142.85C112.233 142.246 114.086 141.512 115.881 140.653C115.889 140.645 115.905 140.645 115.913 140.637C116.317 140.446 116.706 140.24 117.103 140.042L117.293 139.947C117.611 139.78 117.928 139.613 118.245 139.439C119.038 139.003 119.816 138.543 120.586 138.051C120.8 137.924 121.006 137.789 121.22 137.646C121.918 137.186 122.608 136.694 123.274 136.194C123.394 136.107 123.52 136.02 123.64 135.925C131.071 130.283 136.526 122.434 139.223 113.502C141.919 104.57 141.718 95.013 138.649 86.2019Z" fill="#4B5563"/>
<path d="M138.649 392.202C136.536 386.132 133.124 380.595 128.651 375.979C124.179 371.363 118.753 367.778 112.753 365.474C106.752 363.17 100.321 362.202 93.9087 362.639C87.496 363.076 81.2558 364.906 75.6231 368.003C69.9905 371.099 65.1011 375.387 61.2958 380.567C57.4905 385.747 54.861 391.695 53.5906 397.995C52.3202 404.296 52.4394 410.798 53.9401 417.048C55.4408 423.298 58.2866 429.145 62.2794 434.182C62.676 434.682 63.0885 435.182 63.5088 435.666C63.5406 435.697 63.5642 435.729 63.596 435.761C64.6302 436.952 65.7294 438.086 66.8884 439.156C67.1897 439.434 67.507 439.719 67.8242 439.989C68.4273 440.529 69.0459 441.044 69.6885 441.536C70.9431 442.525 72.2514 443.444 73.6072 444.289L73.6549 444.313C74.5353 444.86 75.4316 445.368 76.3442 445.852L76.7169 446.042C77.5737 446.486 78.4463 446.907 79.3427 447.295C79.5251 447.375 79.7234 447.454 79.9059 447.533C79.9217 447.541 79.9298 447.541 79.9457 447.549C81.7569 448.302 83.6175 448.93 85.5146 449.429C89.2332 450.42 93.0653 450.922 96.9138 450.921C98.3179 450.921 99.7061 450.857 101.078 450.722C104.214 450.433 107.31 449.808 110.312 448.858C110.321 448.858 110.328 448.85 110.336 448.85C112.233 448.246 114.086 447.512 115.881 446.653C115.889 446.645 115.905 446.645 115.913 446.637C116.317 446.446 116.706 446.24 117.103 446.042L117.293 445.947C117.611 445.78 117.928 445.613 118.245 445.439C119.038 445.003 119.816 444.543 120.586 444.051C120.8 443.924 121.006 443.789 121.22 443.646C121.918 443.186 122.608 442.694 123.274 442.194C123.394 442.107 123.52 442.02 123.64 441.925C131.071 436.283 136.526 428.434 139.223 419.502C141.919 410.57 141.718 401.013 138.649 392.202Z" fill="#4B5563"/>
<path d="M562.934 621.488C559.252 622.782 555.298 623.107 551.454 622.429C547.61 621.752 544.005 620.097 540.987 617.622C533.3 611.17 530.887 600.541 528.929 590.698L523.129 561.586L535.272 569.948C544.005 575.961 552.934 582.167 558.981 590.877C565.028 599.587 567.667 611.477 562.809 620.901" fill="#E6E6E6"/>
<path d="M561.898 656.734C563.127 647.781 564.391 638.714 563.529 629.665C562.763 621.629 560.312 613.78 555.32 607.344C552.67 603.934 549.446 601.012 545.793 598.711C544.84 598.111 543.964 599.62 544.912 600.218C551.233 604.213 556.122 610.112 558.875 617.065C561.915 624.797 562.403 633.226 561.875 641.439C561.558 646.406 560.887 651.339 560.21 656.269C560.155 656.492 560.188 656.727 560.302 656.927C560.415 657.126 560.6 657.275 560.82 657.343C561.043 657.403 561.281 657.373 561.482 657.258C561.683 657.144 561.831 656.955 561.894 656.733L561.898 656.734Z" fill="#F2F2F2"/>
<path d="M517.886 508.034H9.85156V0H517.886V508.034ZM17.3577 500.528H510.38V7.50617H17.3577V500.528Z" fill="#E5E5E5"/>
<path d="M427.887 79.4824H207.887V86.3355H427.887V79.4824Z" fill="#E5E5E5"/>
<path d="M427.887 97.3008H207.887V104.154H427.887V97.3008Z" fill="#E5E5E5"/>
<path d="M427.887 115.119H207.887V121.972H427.887V115.119Z" fill="#E5E5E5"/>
<path d="M427.887 232.482H207.887V239.336H427.887V232.482Z" fill="#E5E5E5"/>
<path d="M427.887 250.301H207.887V257.154H427.887V250.301Z" fill="#E5E5E5"/>
<path d="M427.887 268.119H207.887V274.972H427.887V268.119Z" fill="#E5E5E5"/>
<path d="M427.887 385.482H207.887V392.336H427.887V385.482Z" fill="#E5E5E5"/>
<path d="M427.887 403.301H207.887V410.154H427.887V403.301Z" fill="#E5E5E5"/>
<path d="M427.887 421.119H207.887V427.972H427.887V421.119Z" fill="#E5E5E5"/>
<path d="M119.816 134.084C116.057 132.104 112.134 130.453 108.091 129.15L107.575 123.446L86.6645 121.193L84.007 128.484L76.5026 131.3C76.234 131.402 75.9784 131.535 75.741 131.696H75.7329C75.3141 131.979 74.9574 132.345 74.6846 132.77C74.4118 133.196 74.2287 133.673 74.1463 134.171C74.0662 134.667 74.0852 135.174 74.2021 135.663L74.5988 137.289C75.1698 137.63 75.7569 137.955 76.3437 138.265L76.7168 138.455C77.5736 138.899 78.4462 139.32 79.3426 139.708C79.525 139.788 79.7233 139.867 79.9058 139.946C79.9216 139.954 79.9294 139.954 79.9453 139.962C80.3659 140.137 80.7862 140.303 81.2146 140.462C82.6218 141 84.0571 141.46 85.5141 141.842C89.2329 142.834 93.0651 143.335 96.9137 143.334C98.3178 143.334 99.706 143.27 101.078 143.135C104.214 142.846 107.31 142.221 110.312 141.271C110.32 141.271 110.328 141.263 110.336 141.263C112.233 140.659 114.085 139.925 115.881 139.066C115.889 139.058 115.905 139.058 115.913 139.05C116.317 138.86 116.706 138.653 117.103 138.455L117.293 138.36C117.61 138.193 117.928 138.027 118.245 137.852C119.038 137.416 119.816 136.956 120.585 136.464C120.799 136.337 121.006 136.202 121.22 136.059C121.521 135.861 121.823 135.655 122.116 135.441C121.378 134.965 120.609 134.513 119.816 134.084Z" fill="#3F3D56"/>
<path d="M80.5713 137.597L79.2624 131.688H75.8433C75.8089 131.688 75.7745 131.691 75.7403 131.695H75.7322C74.5035 131.799 73.3202 132.208 72.2895 132.885C71.5904 133.332 70.9688 133.889 70.4492 134.535C71.4644 135.305 72.5196 136.019 73.6064 136.701L73.6541 136.725C73.9632 136.915 74.2808 137.106 74.5981 137.288C75.1691 137.629 75.7562 137.954 76.3431 138.264L76.7161 138.454C77.5729 138.898 78.4456 139.319 79.3419 139.708C79.5243 139.787 79.7227 139.866 79.9051 139.946C79.921 139.953 79.9287 139.953 79.9446 139.961C80.3653 140.136 80.7855 140.303 81.2139 140.461L80.5713 137.597Z" fill="#3F3D56"/>
<path d="M96.2984 117.587C104.616 117.587 111.359 110.844 111.359 102.527C111.359 94.2094 104.616 87.4668 96.2984 87.4668C87.9809 87.4668 81.2383 94.2094 81.2383 102.527C81.2383 110.844 87.9809 117.587 96.2984 117.587Z" fill="#FFB8B8"/>
<path d="M86.1856 95.1918C87.7446 97.0367 90.3829 97.5574 92.8167 97.7708C98.5068 98.0851 104.213 97.6192 109.777 96.3859C110.122 99.7273 109.182 103.33 111.15 106.079C112.072 102.751 112.609 99.3284 112.749 95.878C112.896 94.3976 112.702 92.9033 112.183 91.509C111.906 90.8103 111.438 90.2033 110.833 89.7572C110.228 89.3111 109.51 89.0437 108.761 88.9854C109.882 88.1342 111.197 87.5724 112.587 87.3494L107.805 84.9463L109.033 83.6856L100.376 83.1558L102.883 81.5628C99.1095 81.0442 95.2915 80.9237 91.4923 81.2032C89.7169 81.204 87.9752 81.6881 86.4541 82.6037C85.0247 83.6258 84.1987 85.6574 85.0861 87.1582C83.9751 87.3406 82.9291 87.8037 82.0472 88.5035C81.1652 89.2032 80.4765 90.1166 80.0463 91.157C79.5023 92.8108 79.371 94.5725 79.6638 96.2886C79.9899 99.042 80.6298 101.749 81.571 104.357L86.1856 95.1918Z" fill="#2F2E41"/>
<path d="M138.645 86.2019C136.532 80.1316 133.12 74.5953 128.647 69.979C124.175 65.3628 118.749 61.7777 112.749 59.4737C106.748 57.1698 100.318 56.2025 93.9048 56.6393C87.4921 57.076 81.2519 58.9064 75.6193 62.0027C69.9866 65.099 65.0972 69.3867 61.2919 74.5667C57.4866 79.7468 54.8571 85.6946 53.5867 91.9954C52.3162 98.2961 52.4355 104.798 53.9362 111.048C55.4369 117.298 58.2828 123.145 62.2755 128.182C62.6721 128.682 63.0847 129.182 63.5053 129.666C63.5371 129.698 63.5607 129.729 63.5925 129.761C64.6265 130.952 65.7255 132.086 66.8845 133.156C67.1862 133.434 67.5035 133.719 67.8207 133.989C68.4234 134.529 69.0424 135.044 69.685 135.536C69.9387 135.734 70.1846 135.933 70.4465 136.123C71.4617 136.893 72.5169 137.607 73.6038 138.289L73.6514 138.313C73.9605 138.503 74.2781 138.693 74.5954 138.876C75.1664 139.217 75.7535 139.542 76.3404 139.852L76.7134 140.042C77.5702 140.486 78.4429 140.907 79.3392 141.295C79.5216 141.375 79.72 141.454 79.9024 141.533C79.9183 141.541 79.926 141.541 79.9419 141.549C80.3625 141.724 80.7828 141.89 81.2112 142.049C82.6184 142.586 84.0537 143.047 85.5107 143.429C89.2295 144.42 93.0617 144.922 96.9103 144.921C98.3144 144.921 99.7026 144.857 101.075 144.722C104.211 144.433 107.306 143.808 110.309 142.858C110.317 142.858 110.325 142.85 110.333 142.85C112.229 142.246 114.082 141.512 115.878 140.653C115.886 140.645 115.901 140.645 115.91 140.637C116.314 140.447 116.703 140.24 117.099 140.042L117.29 139.947C117.607 139.78 117.924 139.614 118.242 139.439C119.035 139.003 119.812 138.543 120.582 138.051C120.796 137.924 121.002 137.789 121.217 137.646C121.518 137.448 121.819 137.242 122.113 137.027C122.501 136.758 122.89 136.48 123.271 136.195C123.39 136.107 123.517 136.02 123.636 135.925C131.068 130.284 136.523 122.434 139.219 113.502C141.915 104.57 141.714 95.013 138.645 86.2019ZM122.176 133.997C121.915 134.203 121.645 134.402 121.375 134.584C121.113 134.783 120.852 134.973 120.582 135.147C120.352 135.314 120.121 135.473 119.884 135.623L119.812 135.671C119.638 135.79 119.463 135.901 119.289 136.012C118.63 136.425 117.964 136.821 117.29 137.202L117.075 137.321C116.774 137.488 116.473 137.646 116.171 137.805C116.131 137.829 116.084 137.845 116.044 137.868L115.997 137.892C115.616 138.091 115.227 138.281 114.839 138.463C113.339 139.186 111.794 139.811 110.214 140.335C110.007 140.407 109.801 140.478 109.595 140.542C106.753 141.446 103.822 142.041 100.853 142.319C99.552 142.438 98.2351 142.501 96.9103 142.501C93.2702 142.509 89.6451 142.034 86.1297 141.089C84.3256 140.618 82.5574 140.019 80.8386 139.296C80.7511 139.257 80.6558 139.225 80.5686 139.185C80.4737 139.146 80.3862 139.114 80.299 139.074C80.2038 139.035 80.1166 138.995 80.0213 138.947C79.2757 138.622 78.5378 138.265 77.8162 137.892L77.4672 137.71C76.5863 137.25 75.7218 136.758 74.8808 136.234C74.6348 136.083 74.3812 135.925 74.143 135.758C74.0798 135.719 74.0241 135.679 73.9605 135.639C73.3973 135.266 72.8341 134.878 72.2868 134.473C71.9142 134.195 71.5412 133.918 71.1763 133.632C70.5655 133.172 69.9782 132.68 69.4073 132.173C69.1059 131.919 68.8123 131.641 68.5269 131.379C67.4021 130.341 66.3373 129.239 65.3378 128.079C65.0047 127.699 64.6794 127.318 64.3699 126.921C64.2995 126.843 64.2333 126.761 64.1715 126.675C59.0173 120.171 55.9172 112.279 55.2663 104.006C54.6155 95.7333 56.4436 87.4538 60.5173 80.2239C64.5911 72.9939 70.726 67.1412 78.1395 63.4121C85.5531 59.6829 93.9094 58.2464 102.143 59.2857C110.376 60.325 118.113 63.793 124.368 69.2475C130.622 74.7019 135.11 81.8956 137.259 89.9111C139.409 97.9265 139.122 106.401 136.435 114.252C133.749 122.104 128.785 128.978 122.176 133.997Z" fill="#3F3D56"/>
<path d="M138.649 239.202C136.536 233.132 133.124 227.595 128.651 222.979C124.179 218.363 118.753 214.778 112.753 212.474C106.752 210.17 100.321 209.202 93.9087 209.639C87.496 210.076 81.2558 211.906 75.6231 215.003C69.9905 218.099 65.1011 222.387 61.2958 227.567C57.4905 232.747 54.861 238.695 53.5906 244.995C52.3202 251.296 52.4394 257.798 53.9401 264.048C55.4408 270.298 58.2866 276.145 62.2794 281.182C62.676 281.682 63.0885 282.182 63.5088 282.666C63.5406 282.697 63.5642 282.729 63.596 282.761C64.6302 283.952 65.7294 285.086 66.8884 286.156C67.1897 286.434 67.507 286.719 67.8242 286.989C68.4273 287.529 69.0459 288.044 69.6885 288.536C70.9431 289.525 72.2514 290.444 73.6072 291.289L73.6549 291.313C74.5353 291.86 75.4316 292.368 76.3442 292.852L76.7169 293.042C77.5737 293.486 78.4463 293.907 79.3427 294.295C79.5251 294.375 79.7234 294.454 79.9059 294.533C79.9217 294.541 79.9298 294.541 79.9457 294.549C81.7569 295.302 83.6175 295.93 85.5146 296.429C89.2332 297.42 93.0653 297.922 96.9138 297.921C98.3179 297.921 99.7061 297.857 101.078 297.722C104.214 297.433 107.31 296.808 110.312 295.858C110.321 295.858 110.328 295.85 110.336 295.85C112.233 295.246 114.086 294.512 115.881 293.653C115.889 293.645 115.905 293.645 115.913 293.637C116.317 293.446 116.706 293.24 117.103 293.042L117.293 292.947C117.611 292.78 117.928 292.613 118.245 292.439C119.038 292.003 119.816 291.543 120.586 291.051C120.8 290.924 121.006 290.789 121.22 290.646C121.918 290.186 122.608 289.694 123.274 289.194C123.394 289.107 123.52 289.02 123.64 288.925C131.071 283.283 136.526 275.434 139.223 266.502C141.919 257.57 141.718 248.013 138.649 239.202Z" fill="#4B5563"/>
<path d="M111.494 271.943C115.152 271.943 118.117 268.978 118.117 265.32C118.117 261.663 115.152 258.697 111.494 258.697C107.836 258.697 104.871 261.663 104.871 265.32C104.871 268.978 107.836 271.943 111.494 271.943Z" fill="#2F2E41"/>
<path d="M113.342 258.88C114.489 258.881 115.616 259.178 116.612 259.744C117.609 260.31 118.442 261.125 119.03 262.109C119.617 263.093 119.94 264.213 119.965 265.359C119.99 266.505 119.717 267.638 119.173 268.647C119.747 267.929 120.165 267.099 120.401 266.21C120.636 265.321 120.684 264.393 120.541 263.484C120.398 262.576 120.067 261.707 119.57 260.934C119.073 260.16 118.42 259.499 117.653 258.991C116.886 258.484 116.021 258.142 115.115 257.987C114.209 257.832 113.28 257.868 112.388 258.092C111.496 258.316 110.66 258.723 109.934 259.288C109.209 259.852 108.608 260.562 108.172 261.371C108.791 260.594 109.578 259.966 110.473 259.535C111.368 259.104 112.349 258.88 113.342 258.88Z" fill="#2F2E41"/>
<path d="M99.1201 265.307C109.865 265.307 118.576 256.596 118.576 245.851C118.576 235.105 109.865 226.395 99.1201 226.395C88.3748 226.395 79.6641 235.105 79.6641 245.851C79.6641 256.596 88.3748 265.307 99.1201 265.307Z" fill="#2F2E41"/>
<path d="M83.8506 233.78C87.203 230.009 91.8891 227.689 96.9199 227.308C101.951 226.928 106.933 228.517 110.814 231.739C110.656 231.588 110.497 231.436 110.333 231.289C106.489 227.846 101.436 226.07 96.2833 226.354C91.1311 226.637 86.3022 228.955 82.8592 232.798C79.4161 236.642 77.6408 241.695 77.9239 246.847C78.2069 252 80.5251 256.829 84.3685 260.272C84.4054 260.305 84.4425 260.338 84.4796 260.37C84.6446 260.517 84.8144 260.656 84.9834 260.797C81.3281 257.319 79.1668 252.558 78.9556 247.517C78.7444 242.476 80.499 237.551 83.8506 233.78Z" fill="#2F2E41"/>
<path d="M98.9525 265.141C105.873 265.141 111.483 259.531 111.483 252.611C111.483 245.69 105.873 240.08 98.9525 240.08C92.032 240.08 86.4219 245.69 86.4219 252.611C86.4219 259.531 92.032 265.141 98.9525 265.141Z" fill="#A0616A"/>
<path d="M121.376 285.26V289.464C120.607 289.956 119.829 290.416 119.036 290.853C118.719 291.027 118.401 291.194 118.084 291.36L117.894 291.455C117.497 291.654 117.108 291.86 116.704 292.05C116.696 292.058 116.68 292.058 116.672 292.066C114.876 292.925 113.023 293.659 111.127 294.264C111.119 294.264 111.111 294.272 111.103 294.272C108.101 295.221 105.005 295.846 101.869 296.136C100.497 296.271 99.1086 296.334 97.7045 296.334C93.8561 296.335 90.024 295.834 86.3054 294.843C84.4083 294.344 82.5477 293.716 80.7365 292.963C80.7207 292.955 80.7125 292.955 80.6966 292.947C80.5142 292.867 80.3159 292.788 80.1334 292.709C79.2371 292.32 78.3644 291.9 77.5076 291.455L77.135 291.265C76.2224 290.781 75.3261 290.273 74.4457 289.726L74.398 289.702C73.0422 288.857 71.7339 287.938 70.4793 286.95C69.8367 286.458 69.2181 285.942 68.615 285.403C68.2978 285.133 67.9805 284.847 67.6792 284.57C66.5202 283.499 65.421 282.366 64.3867 281.175C64.5239 280.348 64.7256 279.534 64.9898 278.739L64.9976 278.731C65.045 278.596 65.1007 278.463 65.1641 278.335C65.2079 278.221 65.2582 278.109 65.3148 278.001C66.7348 275.344 69.3052 274.685 72.4942 274.543C74.295 274.463 76.2859 274.551 78.3885 274.527C79.499 274.519 80.649 274.479 81.7994 274.376C89.0579 273.718 87.7413 269.434 88.0663 267.125C88.3917 264.888 90.4066 266.824 90.5414 266.951L90.5492 266.959C94.6567 268.881 99.2012 269.678 103.718 269.267C104.495 269.172 105.272 269.117 106.05 269.093C108.097 269.069 107.652 269.656 106.947 270.14C106.604 270.365 106.246 270.567 105.876 270.743C105.876 270.743 105.55 272.726 105.217 275.693C104.9 278.533 110.342 279.866 110.794 279.969C110.803 279.975 110.814 279.978 110.825 279.977C112.813 279.461 114.905 279.516 116.863 280.135H116.87C117.989 280.547 118.987 281.231 119.774 282.126C120.561 283.021 121.111 284.098 121.376 285.26Z" fill="#6C63FF"/>
<path d="M80.8173 290.361C80.8173 290.948 80.8018 291.512 80.7777 292.043C80.77 292.36 80.7541 292.67 80.7383 292.963C80.7224 292.955 80.7142 292.955 80.6983 292.947C80.5159 292.868 80.3176 292.789 80.1351 292.709C79.2388 292.321 78.3661 291.9 77.5093 291.456L77.1367 291.266C76.2241 290.782 75.3278 290.274 74.4474 289.727C74.471 289.449 74.5109 289.171 74.5504 288.894C74.6375 288.283 74.7092 287.664 74.7568 287.053C75.0687 282.762 74.291 278.461 72.4959 274.551V274.543C72.3371 274.226 72.2422 274.051 72.2422 274.051C72.2422 274.051 74.5504 272.068 77.8424 274.051C78.0527 274.175 78.2384 274.336 78.3901 274.527C80.3733 276.868 80.9125 284.737 80.8173 290.361Z" fill="#2F2E41"/>
<path d="M116.839 289.281C116.807 290.17 116.759 291.098 116.704 292.042V292.05C116.696 292.058 116.68 292.058 116.672 292.065C114.877 292.924 113.024 293.659 111.127 294.263C111.119 294.263 111.112 294.271 111.103 294.271L111.016 292.042L111.008 291.748L110.588 280.896C110.577 280.65 110.615 280.405 110.701 280.175C110.788 279.944 110.92 279.734 111.089 279.556C111.259 279.378 111.463 279.236 111.689 279.139C111.915 279.043 112.159 278.992 112.404 278.992H116.426C116.625 278.992 116.768 279.397 116.863 280.127V280.134C117.058 283.18 117.05 286.236 116.839 289.281Z" fill="#2F2E41"/>
<path d="M88.2383 236.947V249.481H91.1401L94.8329 245.524L94.3387 249.481H107.166L106.373 245.524L107.959 249.481H110.004V236.947H88.2383Z" fill="#2F2E41"/>
<path d="M86.2588 251.787C86.8051 251.787 87.248 250.975 87.248 249.974C87.248 248.972 86.8051 248.16 86.2588 248.16C85.7124 248.16 85.2695 248.972 85.2695 249.974C85.2695 250.975 85.7124 251.787 86.2588 251.787Z" fill="#A0616A"/>
<path d="M111.649 251.787C112.196 251.787 112.639 250.975 112.639 249.974C112.639 248.972 112.196 248.16 111.649 248.16C111.103 248.16 110.66 248.972 110.66 249.974C110.66 250.975 111.103 251.787 111.649 251.787Z" fill="#A0616A"/>
<path d="M124.067 287.609C123.401 288.109 122.71 288.6 122.012 289.061C121.798 289.203 121.592 289.338 121.378 289.465C120.608 289.957 119.831 290.417 119.038 290.853C118.72 291.028 118.403 291.195 118.086 291.361V282.619C118.086 282.619 119.355 283.635 121.378 285.324C121.632 285.538 121.893 285.761 122.171 285.999C122.758 286.49 123.393 287.03 124.067 287.609Z" fill="#6C63FF"/>
<path d="M138.649 239.202C136.536 233.132 133.124 227.595 128.651 222.979C124.179 218.363 118.753 214.778 112.753 212.474C106.752 210.17 100.321 209.202 93.9087 209.639C87.496 210.076 81.2558 211.906 75.6231 215.003C69.9905 218.099 65.1011 222.387 61.2958 227.567C57.4905 232.747 54.861 238.695 53.5906 244.995C52.3202 251.296 52.4394 257.798 53.9401 264.048C55.4408 270.298 58.2866 276.145 62.2794 281.182C62.676 281.682 63.0885 282.182 63.5088 282.666C63.5406 282.697 63.5642 282.729 63.596 282.761C64.6302 283.952 65.7294 285.086 66.8884 286.156C67.1897 286.434 67.507 286.719 67.8242 286.989C68.4273 287.529 69.0459 288.044 69.6885 288.536C70.9431 289.525 72.2514 290.444 73.6072 291.289L73.6549 291.313C74.5353 291.86 75.4316 292.368 76.3442 292.852L76.7169 293.042C77.5737 293.486 78.4463 293.907 79.3427 294.295C79.5251 294.375 79.7234 294.454 79.9059 294.533C79.9217 294.541 79.9298 294.541 79.9457 294.549C81.7569 295.302 83.6175 295.93 85.5146 296.429C89.2332 297.42 93.0653 297.922 96.9138 297.921C98.3179 297.921 99.7061 297.857 101.078 297.722C104.214 297.433 107.31 296.808 110.312 295.858C110.321 295.858 110.328 295.85 110.336 295.85C112.233 295.246 114.086 294.512 115.881 293.653C115.889 293.645 115.905 293.645 115.913 293.637C116.317 293.446 116.706 293.24 117.103 293.042L117.293 292.947C117.611 292.78 117.928 292.613 118.245 292.439C119.038 292.003 119.816 291.543 120.586 291.051C120.8 290.924 121.006 290.789 121.22 290.646C121.918 290.186 122.608 289.694 123.274 289.194C123.394 289.107 123.52 289.02 123.64 288.925C131.071 283.283 136.526 275.434 139.223 266.502C141.919 257.57 141.718 248.013 138.649 239.202ZM122.18 286.997C121.918 287.203 121.648 287.402 121.379 287.584C121.117 287.782 120.855 287.973 120.586 288.147C120.355 288.314 120.125 288.473 119.887 288.623C119.689 288.758 119.491 288.885 119.292 289.012C118.634 289.424 117.968 289.821 117.293 290.202L117.079 290.321C116.778 290.487 116.476 290.646 116.175 290.805C116.135 290.829 116.087 290.844 116.048 290.868L116 290.892C115.619 291.09 115.231 291.281 114.842 291.463C113.342 292.186 111.797 292.811 110.217 293.335C110.011 293.407 109.805 293.478 109.599 293.542C106.757 294.445 103.826 295.041 100.857 295.319C99.5555 295.438 98.2385 295.501 96.9138 295.501C93.2736 295.508 89.6486 295.034 86.1332 294.089C84.3291 293.618 82.5609 293.019 80.8421 292.296C80.6596 292.225 80.4772 292.145 80.3025 292.074C80.2076 292.034 80.1201 291.995 80.0248 291.947C79.2791 291.622 78.5417 291.265 77.8196 290.892L77.4706 290.71C76.5902 290.249 75.7253 289.758 74.8843 289.234C74.5752 289.044 74.2657 288.845 73.9644 288.639C73.0123 288.012 72.0842 287.338 71.1798 286.632C70.5689 286.172 69.9821 285.68 69.4108 285.172C69.1094 284.919 68.8158 284.641 68.5303 284.379C67.4056 283.341 66.3409 282.239 65.3413 281.079C65.0082 280.698 64.6829 280.318 64.3734 279.921C64.303 279.843 64.2368 279.76 64.175 279.675C59.0208 273.171 55.9207 265.279 55.2698 257.006C54.619 248.733 56.4471 240.454 60.5208 233.224C64.5946 225.994 70.7295 220.141 78.143 216.412C85.5566 212.683 93.9129 211.246 102.146 212.286C110.379 213.325 118.117 216.793 124.371 222.247C130.625 227.702 135.113 234.895 137.263 242.911C139.412 250.926 139.125 259.4 136.439 267.252C133.753 275.104 128.789 281.978 122.18 286.997Z" fill="#3F3D56"/>
<path d="M97.1622 426.59C106.725 426.59 114.477 418.838 114.477 409.275C114.477 399.713 106.725 391.961 97.1622 391.961C87.5996 391.961 79.8477 399.713 79.8477 409.275C79.8477 418.838 87.5996 426.59 97.1622 426.59Z" fill="#2F2E41"/>
<path d="M83.6459 399.941C86.4438 397.143 87.0109 393.174 84.9124 391.075C82.8139 388.977 78.8446 389.544 76.0466 392.342C73.2487 395.14 72.6816 399.109 74.7801 401.208C76.8786 403.306 80.8479 402.739 83.6459 399.941Z" fill="#2F2E41"/>
<path d="M115.206 394.441C116.372 391.712 114.367 388.24 110.728 386.685C107.09 385.131 103.195 386.083 102.029 388.812C100.863 391.542 102.868 395.014 106.507 396.568C110.146 398.123 114.04 397.17 115.206 394.441Z" fill="#2F2E41"/>
<path d="M117.871 442.862L115.831 439.652C114.965 437.718 113.369 436.206 111.391 435.447C109.413 434.688 107.215 434.744 105.278 435.603C103.341 436.462 101.823 438.053 101.057 440.028C100.291 442.003 100.339 444.202 101.191 446.142L101.771 448.222L102.431 450.582C105.104 450.244 107.741 449.669 110.311 448.862C110.319 448.861 110.326 448.857 110.331 448.852C112.231 448.25 114.086 447.515 115.881 446.652C115.891 446.642 115.901 446.642 115.911 446.632C116.311 446.442 116.701 446.242 117.101 446.042C117.166 446.012 117.23 445.979 117.291 445.942C117.611 445.782 117.931 445.612 118.241 445.442C118.561 445.272 118.871 445.092 119.171 444.902L117.871 442.862Z" fill="#CACACA"/>
<path d="M97.7103 428.104C105.826 428.104 112.405 421.525 112.405 413.41C112.405 405.294 105.826 398.715 97.7103 398.715C89.5947 398.715 83.0156 405.294 83.0156 413.41C83.0156 421.525 89.5947 428.104 97.7103 428.104Z" fill="#FFB6B6"/>
<path d="M118.933 442.232C117.312 439.536 115.3 437.096 112.963 434.991C111.362 433.561 109.29 432.771 107.143 432.771H86.4425C85.2498 432.771 84.0695 433.015 82.9748 433.489C81.8801 433.962 80.8942 434.656 80.0779 435.525C79.2616 436.395 78.6323 437.423 78.2289 438.545C77.8255 439.668 77.6566 440.861 77.7326 442.051C77.7777 442.723 77.8986 443.387 78.0929 444.031C78.2405 444.498 78.4243 444.953 78.6427 445.391L79.6627 447.431C79.7428 447.461 79.8229 447.501 79.9024 447.531C79.9224 447.541 79.9327 447.541 79.9425 447.551C80.3624 447.721 80.7828 447.891 81.2124 448.051C82.6197 448.589 84.0552 449.05 85.5127 449.431C87.8589 450.061 90.2539 450.493 92.6724 450.721C94.0826 450.851 95.4927 450.922 96.9126 450.922C98.3228 450.922 99.7026 450.851 101.083 450.721C101.533 450.681 101.982 450.631 102.433 450.581C105.105 450.244 107.742 449.668 110.313 448.862C110.32 448.861 110.327 448.857 110.333 448.852C112.232 448.25 114.087 447.515 115.883 446.651C115.893 446.641 115.902 446.641 115.913 446.631C116.313 446.441 116.703 446.242 117.103 446.042C117.168 446.012 117.231 445.979 117.293 445.941C117.612 445.781 117.933 445.611 118.243 445.441C118.563 445.271 118.872 445.091 119.172 444.901C119.493 444.731 119.793 444.542 120.103 444.352C119.723 443.602 119.333 442.902 118.933 442.232Z" fill="#CACACA"/>
<path d="M90.1914 435.453C88.2758 434.557 86.0833 434.456 84.0933 435.171C82.1033 435.887 80.4777 437.362 79.5718 439.273L77.7314 442.053L76.8516 443.383L75.5117 445.403C75.7915 445.553 76.0615 445.703 76.3418 445.853L76.7114 446.043C77.5718 446.483 78.4414 446.903 79.3418 447.293C79.4414 447.343 79.5518 447.383 79.6616 447.433C79.7417 447.463 79.8218 447.503 79.9014 447.533C79.9214 447.543 79.9317 447.543 79.9414 447.553C80.3613 447.723 80.7817 447.893 81.2114 448.053C82.6186 448.591 84.0542 449.052 85.5117 449.433C87.8578 450.063 90.2528 450.494 92.6713 450.723L93.3715 448.353L94.0517 446.093C94.9482 444.17 95.0452 441.969 94.3215 439.975C93.5978 437.98 92.1125 436.354 90.1914 435.453Z" fill="#CACACA"/>
<path d="M82.2695 404.168C85.6275 406.482 89.6131 407.714 93.6913 407.698C92.2366 408.706 90.5805 409.388 88.837 409.695C94.2594 410.858 99.8634 410.889 105.298 409.787C106.507 409.593 107.672 409.193 108.744 408.604C109.279 408.305 109.744 407.898 110.111 407.408C110.477 406.918 110.736 406.356 110.871 405.759C111.233 403.696 109.625 401.821 107.954 400.558C105.396 398.653 102.447 397.341 99.3193 396.716C96.1919 396.091 92.9647 396.169 89.8711 396.944C87.8099 397.359 85.9342 398.419 84.5155 399.971C83.829 400.761 83.4146 401.75 83.3335 402.793C83.2524 403.837 83.5088 404.878 84.0649 405.765L82.2695 404.168Z" fill="#2F2E41"/>
<path d="M138.652 392.203C136.539 386.132 133.127 380.595 128.655 375.978C124.182 371.361 118.757 367.775 112.756 365.471C106.755 363.166 100.324 362.199 93.9108 362.635C87.4976 363.072 81.2569 364.902 75.6238 367.999C69.9908 371.095 65.101 375.383 61.2955 380.564C57.4901 385.744 54.8605 391.693 53.5903 397.994C52.32 404.295 52.4396 410.798 53.9408 417.048C55.4419 423.298 58.2885 429.146 62.2819 434.183C62.6716 434.683 63.092 435.183 63.5119 435.663C63.536 435.698 63.5628 435.731 63.592 435.763C64.6276 436.954 65.7293 438.085 66.8918 439.153C67.1916 439.433 67.5017 439.723 67.822 439.993C68.4216 440.533 69.0417 441.043 69.6916 441.533C69.9416 441.733 70.1916 441.933 70.4519 442.123C71.4616 442.893 72.5217 443.603 73.6018 444.293C73.6203 444.293 73.638 444.3 73.6516 444.313C73.9616 444.503 74.2819 444.693 74.6018 444.873C74.9016 445.053 75.2116 445.233 75.5119 445.403C75.7917 445.553 76.0617 445.703 76.342 445.853L76.7116 446.043C77.572 446.483 78.4416 446.903 79.342 447.293C79.4416 447.343 79.552 447.383 79.6618 447.433C79.7419 447.463 79.822 447.503 79.9016 447.533C79.9216 447.543 79.9318 447.543 79.9415 447.553C80.3615 447.723 80.7819 447.893 81.2116 448.053C82.6188 448.591 84.0544 449.051 85.5119 449.433C87.858 450.063 90.253 450.494 92.6715 450.723C94.0817 450.853 95.4918 450.923 96.9118 450.923C98.3219 450.923 99.7018 450.853 101.082 450.723C101.532 450.683 101.982 450.633 102.432 450.583C105.104 450.245 107.742 449.67 110.312 448.863C110.319 448.862 110.326 448.858 110.332 448.853C112.231 448.251 114.086 447.516 115.882 446.653C115.892 446.643 115.901 446.643 115.912 446.633C116.312 446.443 116.702 446.243 117.102 446.043C117.167 446.013 117.23 445.98 117.292 445.943C117.611 445.783 117.932 445.613 118.242 445.443C118.562 445.273 118.872 445.093 119.171 444.903C119.492 444.733 119.792 444.543 120.102 444.353C120.262 444.253 120.422 444.153 120.582 444.053C120.802 443.923 121.002 443.793 121.222 443.643C121.522 443.453 121.822 443.243 122.111 443.033C122.502 442.763 122.892 442.483 123.272 442.193C123.4 442.109 123.523 442.019 123.642 441.923C131.068 436.277 136.519 428.428 139.215 419.498C141.911 410.568 141.714 401.014 138.652 392.203ZM122.182 439.993C121.922 440.203 121.652 440.403 121.382 440.583C121.111 440.783 120.852 440.973 120.582 441.153C120.352 441.313 120.122 441.473 119.882 441.623C119.86 441.642 119.837 441.658 119.812 441.673C119.642 441.793 119.462 441.903 119.292 442.013C119.172 442.083 119.052 442.163 118.932 442.233C118.582 442.453 118.232 442.663 117.872 442.863C117.682 442.983 117.482 443.093 117.292 443.203C117.222 443.243 117.152 443.283 117.082 443.323C116.772 443.493 116.472 443.643 116.172 443.803C116.132 443.833 116.082 443.843 116.052 443.873C116.033 443.873 116.015 443.88 116.002 443.893C115.622 444.093 115.232 444.283 114.842 444.463C113.34 445.185 111.794 445.81 110.212 446.333C110.012 446.403 109.802 446.483 109.602 446.543C107.051 447.352 104.429 447.914 101.772 448.223C101.472 448.263 101.162 448.293 100.852 448.323C99.5519 448.443 98.2419 448.503 96.9118 448.503C95.7316 448.503 94.5417 448.453 93.3718 448.353C90.9258 448.149 88.503 447.727 86.132 447.093C84.3272 446.622 82.5592 446.021 80.842 445.293C80.7517 445.253 80.6619 445.223 80.572 445.183C80.4719 445.143 80.3918 445.113 80.302 445.073C80.2019 445.033 80.1218 444.993 80.0217 444.943C79.3718 444.663 78.7219 444.353 78.0921 444.033C78.0017 443.983 77.9119 443.943 77.8221 443.893L77.472 443.713C77.262 443.603 77.052 443.493 76.8519 443.383C76.1819 443.023 75.5218 442.633 74.8821 442.233C74.6419 442.083 74.3821 441.923 74.1419 441.763L73.9617 441.643C73.4017 441.263 72.8421 440.883 72.2918 440.473C71.9217 440.193 71.5418 439.923 71.1819 439.633C70.5721 439.173 69.9817 438.683 69.4119 438.173C69.1116 437.923 68.8119 437.643 68.5321 437.383C67.406 436.345 66.3409 435.243 65.3421 434.083C65.012 433.703 64.682 433.323 64.3719 432.923C64.3021 432.843 64.242 432.763 64.1717 432.673C59.0163 426.168 55.9151 418.276 55.2637 410.001C54.6122 401.727 56.4399 393.447 60.5138 386.215C64.5877 378.984 70.723 373.13 78.1374 369.4C85.5517 365.67 93.9091 364.233 102.144 365.272C110.378 366.311 118.116 369.78 124.372 375.234C130.627 380.689 135.116 387.884 137.266 395.9C139.416 403.917 139.129 412.392 136.443 420.245C133.756 428.098 128.791 434.973 122.182 439.993Z" fill="#3F3D56"/>
<path d="M170.848 176.289C155.46 163.304 136.63 155.072 116.648 152.594C96.6673 150.116 76.3967 153.5 58.3033 162.332C40.21 171.165 25.0739 185.066 14.737 202.344C4.40008 219.622 -0.692004 239.532 0.0803797 259.652C0.852764 279.771 7.4563 299.232 19.0875 315.667C30.7186 332.102 46.8759 344.802 65.5932 352.221C84.3105 359.641 104.781 361.46 124.513 357.457C144.246 353.455 162.389 343.804 176.736 329.677L304.137 437.177C306.076 438.807 308.583 439.602 311.107 439.387C313.632 439.172 315.968 437.965 317.604 436.03C319.24 434.095 320.041 431.591 319.834 429.065C319.626 426.54 318.425 424.201 316.495 422.559L316.481 422.547L189.081 315.048C203.881 293.807 210.215 267.804 206.842 242.136C203.469 216.468 190.633 192.985 170.848 176.289ZM162.635 304.696C152.71 316.459 139.52 325.014 124.732 329.28C109.945 333.546 94.2249 333.331 79.5597 328.663C64.8945 323.995 51.943 315.082 42.3429 303.053C32.7428 291.024 26.9253 276.419 25.6261 261.083C24.3269 245.748 27.6043 230.372 35.0439 216.899C42.4835 203.426 53.7512 192.462 67.422 185.393C81.0928 178.324 96.5528 175.468 111.847 177.186C127.141 178.903 141.582 185.118 153.345 195.043C169.118 208.352 178.958 227.381 180.7 247.945C182.442 268.509 175.944 288.923 162.635 304.696Z" fill="#0EA5E9"/>
<path opacity="0.3" d="M52.9795 313.987C38.0516 301.39 28.407 283.639 25.9608 264.26C23.5147 244.881 28.4458 225.291 39.7751 209.379C38.2873 210.877 36.8489 212.447 35.4601 214.087C28.8701 221.897 23.8829 230.928 20.7833 240.665C17.6837 250.403 16.5323 260.655 17.395 270.837C18.2576 281.02 21.1173 290.932 25.8109 300.009C30.5045 309.087 36.9399 317.15 44.7499 323.74C52.5598 330.33 61.5913 335.317 71.3286 338.417C81.0659 341.517 91.3184 342.668 101.501 341.805C111.683 340.943 121.596 338.083 130.673 333.389C139.75 328.696 147.814 322.26 154.404 314.451C155.789 312.808 157.094 311.127 158.318 309.405C144.539 323.25 126.058 331.406 106.543 332.255C87.0287 333.104 67.9087 326.583 52.9795 313.987Z" fill="black"/>
<path d="M427.684 441.196C428.68 439.981 429.396 438.563 429.784 437.041C430.172 435.519 430.221 433.931 429.928 432.388C429.636 430.845 429.008 429.385 428.091 428.11C427.173 426.836 425.986 425.778 424.616 425.012L401.394 329.963L384.453 335.371L409.529 429.771C408.394 432.159 408.175 434.881 408.913 437.42C409.65 439.959 411.294 442.14 413.532 443.548C415.77 444.956 418.447 445.495 421.055 445.061C423.663 444.628 426.022 443.253 427.684 441.196Z" fill="#FFB6B6"/>
<path d="M415.682 380.399L403.302 391.079L385.982 406.01L378.332 366.87L377.532 362.8L376.902 359.57L394.452 329L409.082 329.839L410.082 329.899L410.102 330.12L410.332 332.17L413.332 359.149L413.402 359.8L415.682 380.399Z" fill="#0EA5E9"/>
<path d="M334.764 646.074L322.505 646.073L316.672 598.785L334.767 598.786L334.764 646.074Z" fill="#FFB6B6"/>
<path d="M337.89 657.958L298.359 657.957V657.457C298.36 653.376 299.981 649.462 302.866 646.577C305.752 643.692 309.665 642.071 313.746 642.07H313.747L337.891 642.071L337.89 657.958Z" fill="#374151"/>
<path d="M462.764 647.074L450.505 647.073L444.672 599.785L462.767 599.786L462.764 647.074Z" fill="#FFB6B6"/>
<path d="M465.89 658.958L426.359 658.957V658.457C426.36 654.376 427.981 650.462 430.866 647.577C433.752 644.692 437.665 643.071 441.746 643.07H441.747L465.891 643.071L465.89 658.958Z" fill="#374151"/>
<path d="M472.562 628.25L439.562 633.25L391.553 470.77L340.562 634.25L303.562 629.25L351.562 439.25V424.25L358.062 401.75L357.382 395.66L352.652 353.07L350.603 334.6L350.47 333.407C350.358 332.406 350.623 331.399 351.214 330.582C351.804 329.766 352.677 329.198 353.663 328.99L369.062 325.75H394.232L409.083 329.84L410.103 330.12L410.562 330.25L410.333 332.17L406.853 361.35L406.663 362.95L403.302 391.08L402.562 397.25C431.562 418.25 432.562 439.25 432.562 439.25L472.562 628.25Z" fill="#374151"/>
<path d="M378.604 313.099C392.169 313.099 403.165 302.102 403.165 288.538C403.165 274.973 392.169 263.977 378.604 263.977C365.039 263.977 354.043 274.973 354.043 288.538C354.043 302.102 365.039 313.099 378.604 313.099Z" fill="#FFB6B6"/>
<path d="M404.403 391.605L355.816 397.959L356.724 404.9L405.311 398.546L404.403 391.605Z" fill="#3F3D56"/>
<path d="M290.644 400.052C291.108 400.352 291.549 400.689 291.96 401.059L340.017 388.808L343.295 377.215L361.438 379.876L357.629 400.964C357.321 402.667 356.469 404.225 355.201 405.403C353.932 406.581 352.316 407.316 350.594 407.497L294.483 413.407C293.568 415.332 292.089 416.933 290.243 417.998C288.396 419.062 286.268 419.539 284.144 419.365C282.019 419.191 279.998 418.374 278.349 417.024C276.7 415.673 275.501 413.852 274.913 411.803C274.324 409.755 274.372 407.575 275.052 405.555C275.732 403.534 277.011 401.769 278.719 400.493C280.427 399.218 282.482 398.492 284.613 398.413C286.743 398.334 288.846 398.906 290.644 400.052Z" fill="#FFB6B6"/>
<path d="M364.562 335.249L356.062 328.749C353.764 327.877 350.615 330.354 350.062 332.749L338.062 381.749L363.062 399.749L366.562 394.249L364.562 335.249Z" fill="#0EA5E9"/>
<g opacity="0.2">
<path d="M413.332 359.15C411.211 359.992 409.048 360.726 406.852 361.35C406.152 361.56 405.432 361.76 404.722 361.95C400.042 363.248 395.233 364.026 390.382 364.27C388.294 364.358 386.202 364.301 384.122 364.1C381.889 363.877 379.682 363.442 377.532 362.8C377.462 362.78 377.382 362.76 377.312 362.74C372.841 361.47 368.741 359.141 365.362 355.95C364.607 355.215 363.902 354.43 363.252 353.6C361.385 351.313 360.015 348.662 359.23 345.816C358.444 342.969 358.261 339.991 358.692 337.07C358.776 336.541 358.889 336.016 359.032 335.5C359.409 334.093 359.907 332.721 360.522 331.4C360.792 330.78 361.092 330.17 361.412 329.57L372.712 325.75H394.232L409.082 329.84L410.082 329.9L410.102 330.12L410.562 330.25L410.332 332.17L413.332 359.15Z" fill="black"/>
</g>
<path d="M359.787 268.202C355.193 267.639 350.153 268.037 346.572 270.97C342.992 273.902 341.837 279.998 345.227 283.148C348.227 285.937 352.92 285.281 356.939 286.074C360.402 286.85 363.504 288.766 365.749 291.514C367.994 294.261 369.253 297.683 369.323 301.231C369.263 311.405 359.499 319.11 357.745 329.132C356.548 335.972 359.432 343.17 364.42 348.001C369.407 352.833 376.263 355.444 383.171 356.151C390.078 356.859 397.063 355.778 403.776 354.004C410.518 352.221 417.154 349.693 422.811 345.616C428.467 341.538 433.104 335.79 434.92 329.058C436.736 322.326 435.432 314.607 430.752 309.438C425.393 303.519 416.478 301.484 411.842 294.982C406.646 287.695 408.569 277.316 404.363 269.415C401.555 264.14 396.239 260.542 390.571 258.646C384.904 256.751 378.852 256.377 372.879 256.193C369.739 256.097 366.504 256.065 363.579 257.209C360.654 258.354 358.082 260.963 357.931 264.1C357.779 267.237 359.787 268.202 359.787 268.202Z" fill="#2F2E41"/>
<path d="M589.723 659.361H208.723C208.457 659.361 208.203 659.256 208.016 659.068C207.828 658.881 207.723 658.627 207.723 658.361C207.723 658.096 207.828 657.842 208.016 657.654C208.203 657.467 208.457 657.361 208.723 657.361H589.723C589.988 657.361 590.242 657.467 590.43 657.654C590.617 657.842 590.723 658.096 590.723 658.361C590.723 658.627 590.617 658.881 590.43 659.068C590.242 659.256 589.988 659.361 589.723 659.361Z" fill="#CACACA"/>
</g>
<defs>
<clipPath id="clip0_1801_124">
<rect width="590.724" height="659.362" fill="white"/>
</clipPath>
</defs>
</svg>
