<svg width="221" height="221" viewBox="0 0 221 221" fill="none" xmlns="http://www.w3.org/2000/svg">
<path d="M110.425 220.85C88.5853 220.85 67.2356 214.374 49.0763 202.24C30.917 190.107 16.7635 172.861 8.4057 152.683C0.0478811 132.506 -2.13896 110.303 2.12183 88.8823C6.38261 67.462 16.8997 47.7861 32.3429 32.3428C47.7861 16.8996 67.462 6.38261 88.8824 2.12183C110.303 -2.13894 132.506 0.0478525 152.683 8.40568C172.861 16.7635 190.107 30.917 202.24 49.0763C214.374 67.2357 220.85 88.5852 220.85 110.425C220.817 139.702 209.173 167.77 188.471 188.471C167.77 209.173 139.702 220.817 110.425 220.85ZM110.425 1.63598C88.9088 1.63598 67.8755 8.01635 49.9852 19.9703C32.0949 31.9242 18.1511 48.9147 9.91712 68.7934C1.68311 88.672 -0.471335 110.546 3.72632 131.649C7.92398 152.752 18.2852 172.136 33.4996 187.351C48.7141 202.565 68.0985 212.927 89.2015 217.124C110.305 221.322 132.178 219.167 152.057 210.933C171.936 202.699 188.926 188.756 200.88 170.865C212.834 152.975 219.215 131.942 219.215 110.425C219.182 81.5825 207.71 53.9304 187.315 33.5355C166.92 13.1406 139.268 1.66846 110.425 1.63598Z" fill="#6B7280"/>
<path d="M107.156 163.593C136.52 163.593 160.324 139.789 160.324 110.426C160.324 81.0618 136.52 57.2578 107.156 57.2578C77.7923 57.2578 53.9883 81.0618 53.9883 110.426C53.9883 139.789 77.7923 163.593 107.156 163.593Z" fill="#374151"/>
<path d="M107.154 123.511C114.382 123.511 120.241 117.651 120.241 110.423C120.241 103.195 114.382 97.3359 107.154 97.3359C99.9259 97.3359 94.0664 103.195 94.0664 110.423C94.0664 117.651 99.9259 123.511 107.154 123.511Z" fill="#6B7280"/>
</svg>
